<?xml version="1.0" encoding="UTF-8" standalone="no" ?>
<!DOCTYPE svg PUBLIC "-//W3C//DTD SVG 1.1//EN" "http://www.w3.org/Graphics/SVG/1.1/DTD/svg11.dtd">
<svg xmlns="http://www.w3.org/2000/svg" xmlns:xlink="http://www.w3.org/1999/xlink" version="1.1" width="461.17578125" height="156.86399999999998" xml:space="preserve">
<desc>Created with Fabric.js 1.6.0-rc.1</desc>
<defs></defs>
<g style="stroke: none; stroke-width: 1; stroke-dasharray: none; stroke-linecap: butt; stroke-linejoin: miter; stroke-miterlimit: 10; fill: none; fill-rule: nonzero; opacity: 1;" transform="translate(10 10) scale(0.9 0.9)" >
  <circle cx="237.16000000000003" cy="151.44" r="47.2" style="stroke: none; stroke-width: 1; stroke-dasharray: none; stroke-linecap: butt; stroke-linejoin: miter; stroke-miterlimit: 10; fill: #f5e9af; fill-rule: nonzero; opacity: 1;" transform="  matrix(0.9999999116639066 0 0 0.9999999116639066 -170.160984968642 -104.24099079175728) "/>
  <path d="M 231.057 217.445 s 10.054 -37.739 -8.054 -42.724 c 0 0 -11.071 -3.161 -14.658 -4.498 c -3.586 -1.337 -8.598 -2.491 -9.941 1.989 c -0.847 2.824 4.758 4.383 7.088 5.094 c 2.331 0.713 10.35 0.564 10.354 2.805 c 0.004 2.75 -16.917 -1.404 -21.034 -3.001 c -4.195 -1.628 -6.751 -1.876 -8.211 -7.495 c -2.537 -9.76 -7.181 -22.274 -7.181 -22.274 s -2.496 -6.048 -9.259 -4.826 l 8.587 38.831 s 1.77 8.82 11.983 9.934 c 10.39 1.132 39.21 5.022 40.326 26.165 z" style="stroke: none; stroke-width: 1; stroke-dasharray: none; stroke-linecap: butt; stroke-linejoin: miter; stroke-miterlimit: 10; fill: #ebc276; fill-rule: nonzero; opacity: 1;" transform=" matrix(0.9999999116639066 0 0 0.9999999116639066 -170.160984968642 -104.24099079175728) " stroke-linecap="round" />
  <path d="M 240.944 217.445 s -10.054 -37.739 8.054 -42.724 c 0 0 11.071 -3.161 14.658 -4.498 c 3.586 -1.337 8.598 -2.491 9.941 1.989 c 0.846 2.824 -4.758 4.383 -7.088 5.094 c -2.331 0.713 -10.35 0.564 -10.354 2.805 c -0.004 2.75 16.917 -1.404 21.033 -3.001 c 4.195 -1.628 6.752 -1.876 8.212 -7.495 c 2.537 -9.76 7.181 -22.274 7.181 -22.274 s 2.496 -6.048 9.259 -4.826 l -8.587 38.831 s -1.77 8.82 -11.983 9.934 c -10.389 1.132 -39.21 5.022 -40.326 26.165 z" style="stroke: none; stroke-width: 1; stroke-dasharray: none; stroke-linecap: butt; stroke-linejoin: miter; stroke-miterlimit: 10; fill: #ebc276; fill-rule: nonzero; opacity: 1;" transform=" matrix(0.9999999116639066 0 0 0.9999999116639066 -170.160984968642 -104.24099079175728) " stroke-linecap="round" />
  <path d="M 230.967 165.875 s -17.107 -39.596 32.484 -38.635 c 0 0 18.645 0.384 22.873 -6.728 c 0 0 -4.421 51.129 -51.129 46.516 c 0 0 2.557 -23.152 27.295 -28.063 c 0 0.001 -22.681 -0.576 -31.523 26.91 z m -8.469 -24.202 s 12.625 -27.67 -22.35 -27.699 c 0 0 -13.15 0.004 -16.03 -5.07 c 0 0 2.387 36.109 35.383 33.523 c 0 0 -1.472 -16.359 -18.842 -20.174 c 0 0 15.997 -0.084 21.839 19.42 z" style="stroke: none; stroke-width: 1; stroke-dasharray: none; stroke-linecap: butt; stroke-linejoin: miter; stroke-miterlimit: 10; fill: #bbc77f; fill-rule: nonzero; opacity: 1;" transform=" matrix(0.9999999116639066 0 0 0.9999999116639066 -170.160984968642 -104.24099079175728) " stroke-linecap="round" />
</g>
  <g transform="translate(304.09 94.93)">
   <text font-family="ADAMCG PRO" font-size="40" font-weight="normal" style="stroke: none; stroke-width: 1; stroke-dasharray: none; stroke-linecap: butt; stroke-linejoin: miter; stroke-miterlimit: 10; fill: #f7faf5; fill-rule: nonzero; opacity: 1;" ><tspan x="-147.59" y="-17.23" style="stroke: none; stroke-width: 0; stroke-dasharray: none; stroke-linecap: butt; stroke-linejoin: miter; stroke-miterlimit: 4; fill: #f7faf5; fill-rule: ; opacity: 1;">L</tspan><tspan x="-127.16" y="-17.23" style="stroke: none; stroke-width: 0; stroke-dasharray: none; stroke-linecap: butt; stroke-linejoin: miter; stroke-miterlimit: 4; fill: #f7faf5; fill-rule: ; opacity: 1;">I</tspan><tspan x="-116.38" y="-17.23" style="stroke: none; stroke-width: 0; stroke-dasharray: none; stroke-linecap: butt; stroke-linejoin: miter; stroke-miterlimit: 4; fill: #f7faf5; fill-rule: ; opacity: 1;">F</tspan><tspan x="-93.08" y="-17.23" style="stroke: none; stroke-width: 0; stroke-dasharray: none; stroke-linecap: butt; stroke-linejoin: miter; stroke-miterlimit: 4; fill: #f7faf5; fill-rule: ; opacity: 1;">E</tspan><tspan x="-69.81" y="-17.23" style="stroke: none; stroke-width: 0; stroke-dasharray: none; stroke-linecap: butt; stroke-linejoin: miter; stroke-miterlimit: 4; fill: #f7faf5; fill-rule: ; opacity: 1;"> </tspan><tspan x="-57.82" y="-17.23" style="stroke: none; stroke-width: 0; stroke-dasharray: none; stroke-linecap: butt; stroke-linejoin: miter; stroke-miterlimit: 4; fill: #f7faf5; fill-rule: ; opacity: 1;">O</tspan><tspan x="-23.88" y="-17.23" style="stroke: none; stroke-width: 0; stroke-dasharray: none; stroke-linecap: butt; stroke-linejoin: miter; stroke-miterlimit: 4; fill: #f7faf5; fill-rule: ; opacity: 1;">F</tspan><tspan x="-0.58" y="-17.23" style="stroke: none; stroke-width: 0; stroke-dasharray: none; stroke-linecap: butt; stroke-linejoin: miter; stroke-miterlimit: 4; fill: #f7faf5; fill-rule: ; opacity: 1;"> </tspan><tspan x="11.42" y="-17.23" style="stroke: none; stroke-width: 0; stroke-dasharray: none; stroke-linecap: butt; stroke-linejoin: miter; stroke-miterlimit: 4; fill: #f7faf5; fill-rule: ; opacity: 1;">G</tspan><tspan x="39.81" y="-17.23" style="stroke: none; stroke-width: 0; stroke-dasharray: none; stroke-linecap: butt; stroke-linejoin: miter; stroke-miterlimit: 4; fill: #f7faf5; fill-rule: ; opacity: 1;">I</tspan><tspan x="50.6" y="-17.23" style="stroke: none; stroke-width: 0; stroke-dasharray: none; stroke-linecap: butt; stroke-linejoin: miter; stroke-miterlimit: 4; fill: #f7faf5; fill-rule: ; opacity: 1;">V</tspan><tspan x="78.9" y="-17.23" style="stroke: none; stroke-width: 0; stroke-dasharray: none; stroke-linecap: butt; stroke-linejoin: miter; stroke-miterlimit: 4; fill: #f7faf5; fill-rule: ; opacity: 1;">I</tspan><tspan x="89.68" y="-17.23" style="stroke: none; stroke-width: 0; stroke-dasharray: none; stroke-linecap: butt; stroke-linejoin: miter; stroke-miterlimit: 4; fill: #f7faf5; fill-rule: ; opacity: 1;">N</tspan><tspan x="119.19" y="-17.23" style="stroke: none; stroke-width: 0; stroke-dasharray: none; stroke-linecap: butt; stroke-linejoin: miter; stroke-miterlimit: 4; fill: #f7faf5; fill-rule: ; opacity: 1;">G</tspan></text>
 </g>
</svg>